<svg width="70" height="70" viewBox="0 0 70 70" fill="none" xmlns="http://www.w3.org/2000/svg">
<path d="M48.471 0C48.6339 0 48.7968 0 48.9689 0C49.3685 4.93655 47.4843 8.62513 45.1943 11.2963C42.9473 13.949 39.8704 16.5218 34.8939 16.1314C34.562 11.2655 36.4493 7.85052 38.7362 5.18553C40.8571 2.70188 44.7455 0.49181 48.471 0Z" fill="black"/>
<path d="M63.5358 51.3819C63.5358 51.4311 63.5358 51.4741 63.5358 51.5202C62.1372 55.7559 60.1423 59.3861 57.7078 62.755C55.4855 65.8135 52.7621 69.9293 47.8993 69.9293C43.6974 69.9293 40.9063 67.2274 36.5999 67.1536C32.0445 67.0799 29.5394 69.4129 25.3744 70C24.8979 70 24.4215 70 23.9543 70C20.8958 69.5574 18.4275 67.1352 16.6293 64.9528C11.327 58.5039 7.22962 50.1739 6.46732 39.5139C6.46732 38.4688 6.46732 37.4268 6.46732 36.3817C6.79007 28.7525 10.4971 22.5495 15.4244 19.5433C18.0249 17.9449 21.5997 16.5832 25.5803 17.1919C27.2863 17.4562 29.0291 18.0402 30.5568 18.6181C32.0046 19.1745 33.8151 20.1612 35.5302 20.1089C36.6921 20.0751 37.8479 19.4695 39.019 19.0423C42.4494 17.8035 45.8122 16.3834 50.2446 17.0505C55.5715 17.8558 59.3523 20.2226 61.6884 23.8743C57.1822 26.7422 53.6196 31.064 54.2283 38.4442C54.7692 45.1482 58.6668 49.0704 63.5358 51.3819Z" fill="black"/>
</svg>
