<svg width="64" height="64" viewBox="0 0 64 64" fill="none" xmlns="http://www.w3.org/2000/svg">
<path d="M57.1429 0H6.85714C5.03852 0 3.29437 0.722447 2.00841 2.00841C0.722447 3.29437 0 5.03852 0 6.85714L0 57.1429C0 58.9615 0.722447 60.7056 2.00841 61.9916C3.29437 63.2776 5.03852 64 6.85714 64H26.4643V42.2414H17.4643V32H26.4643V24.1943C26.4643 15.3157 31.75 10.4114 39.8457 10.4114C43.7229 10.4114 47.7771 11.1029 47.7771 11.1029V19.8171H43.31C38.9086 19.8171 37.5357 22.5486 37.5357 25.35V32H47.3614L45.79 42.2414H37.5357V64H57.1429C58.9615 64 60.7056 63.2776 61.9916 61.9916C63.2776 60.7056 64 58.9615 64 57.1429V6.85714C64 5.03852 63.2776 3.29437 61.9916 2.00841C60.7056 0.722447 58.9615 0 57.1429 0Z" fill="black"/>
</svg>
