<svg width="403" height="290" viewBox="0 0 403 290" fill="none" xmlns="http://www.w3.org/2000/svg">
<path d="M9.80139 123.033H20.0934V128H3.53672V96.7661H9.80139V123.033ZM35.0831 128.403C32.6966 128.403 30.5487 127.881 28.6395 126.837C26.7302 125.763 25.2237 124.256 24.1199 122.317C23.046 120.378 22.509 118.141 22.509 115.605C22.509 113.069 23.0609 110.832 24.1647 108.893C25.2983 106.954 26.8346 105.462 28.7737 104.418C30.7128 103.344 32.8756 102.807 35.2621 102.807C37.6487 102.807 39.8115 103.344 41.7505 104.418C43.6896 105.462 45.211 106.954 46.3148 108.893C47.4484 110.832 48.0152 113.069 48.0152 115.605C48.0152 118.141 47.4335 120.378 46.27 122.317C45.1364 124.256 43.5852 125.763 41.6163 126.837C39.6772 127.881 37.4995 128.403 35.0831 128.403ZM35.0831 122.944C36.2167 122.944 37.2758 122.675 38.2602 122.138C39.2745 121.571 40.0799 120.736 40.6766 119.632C41.2732 118.528 41.5715 117.186 41.5715 115.605C41.5715 113.248 40.9451 111.443 39.6921 110.19C38.469 108.908 36.9625 108.266 35.1726 108.266C33.3827 108.266 31.8762 108.908 30.6531 110.19C29.4598 111.443 28.8632 113.248 28.8632 115.605C28.8632 117.962 29.4449 119.781 30.6084 121.064C31.8016 122.317 33.2932 122.944 35.0831 122.944ZM62.3208 102.807C64.1704 102.807 65.7962 103.18 67.1983 103.926C68.6004 104.642 69.7042 105.581 70.5096 106.745V103.21H76.8191V128.179C76.8191 130.476 76.3567 132.52 75.4319 134.309C74.5071 136.129 73.1199 137.561 71.2703 138.605C69.4208 139.679 67.1834 140.216 64.5582 140.216C61.038 140.216 58.1444 139.396 55.8771 137.755C53.6398 136.114 52.3719 133.877 52.0736 131.043H58.2935C58.6217 132.176 59.3227 133.071 60.3967 133.728C61.5004 134.414 62.828 134.757 64.3792 134.757C66.1989 134.757 67.6756 134.205 68.8092 133.101C69.9428 132.027 70.5096 130.387 70.5096 128.179V124.331C69.7042 125.494 68.5855 126.464 67.1536 127.239C65.7515 128.015 64.1406 128.403 62.3208 128.403C60.2326 128.403 58.3234 127.866 56.5931 126.792C54.8629 125.718 53.4906 124.211 52.4763 122.272C51.4919 120.303 50.9997 118.051 50.9997 115.515C50.9997 113.01 51.4919 110.787 52.4763 108.848C53.4906 106.909 54.848 105.417 56.5484 104.373C58.2786 103.329 60.2028 102.807 62.3208 102.807ZM70.5096 115.605C70.5096 114.083 70.2113 112.786 69.6147 111.712C69.018 110.608 68.2126 109.773 67.1983 109.206C66.184 108.609 65.0952 108.311 63.9317 108.311C62.7683 108.311 61.6943 108.594 60.7099 109.161C59.7254 109.728 58.92 110.563 58.2935 111.667C57.6969 112.741 57.3986 114.024 57.3986 115.515C57.3986 117.007 57.6969 118.32 58.2935 119.453C58.92 120.557 59.7254 121.407 60.7099 122.004C61.7242 122.6 62.7981 122.899 63.9317 122.899C65.0952 122.899 66.184 122.615 67.1983 122.049C68.2126 121.452 69.018 120.617 69.6147 119.543C70.2113 118.439 70.5096 117.126 70.5096 115.605ZM99.8648 96.7661V128H93.6001V96.7661H99.8648ZM119.792 102.852C122.745 102.852 125.132 103.792 126.951 105.671C128.771 107.52 129.681 110.116 129.681 113.457V128H123.416V114.307C123.416 112.338 122.924 110.832 121.94 109.788C120.955 108.714 119.613 108.177 117.912 108.177C116.182 108.177 114.81 108.714 113.796 109.788C112.811 110.832 112.319 112.338 112.319 114.307V128H106.054V103.21H112.319V106.297C113.154 105.223 114.213 104.388 115.496 103.792C116.809 103.165 118.241 102.852 119.792 102.852Z" fill="black"/>
<g clip-path="url(#clip0_463_195)">
<path d="M139.984 244.3L137.421 234.257C132.877 232.343 128.228 230.686 123.496 229.293L123.173 233.96L121.861 228.818C115.992 227.151 112 226.418 112 226.418C112 226.418 117.391 246.793 128.703 262.37L141.883 264.67L131.644 266.137C133.067 267.838 134.596 269.449 136.222 270.959C152.676 286.134 171.003 293.096 177.156 286.509C183.308 279.923 174.958 262.282 158.504 247.109C153.404 242.405 146.996 238.63 140.582 235.658L139.984 244.3Z" fill="#F2F2F2"/>
<path d="M164.357 233.391L167.388 223.478C164.494 219.506 161.377 215.699 158.051 212.076L155.346 215.906L156.898 210.83C152.741 206.391 149.704 203.713 149.704 203.713C149.704 203.713 143.721 223.924 145.3 243.068L155.385 251.806L145.855 247.803C146.189 249.99 146.66 252.155 147.267 254.283C153.458 275.724 165.524 291.096 174.218 288.618C182.911 286.14 184.941 266.75 178.75 245.309C176.831 238.662 173.309 232.14 169.364 226.302L164.357 233.391Z" fill="#F2F2F2"/>
<path d="M315.058 68.7012H313.46V25.1863C313.46 21.8787 312.804 18.6036 311.53 15.5479C310.256 12.4922 308.389 9.71564 306.035 7.37688C303.681 5.03812 300.887 3.18292 297.811 1.91719C294.736 0.65146 291.44 0 288.111 0H195.321C188.598 0 182.15 2.65354 177.396 7.37688C172.643 12.1002 169.972 18.5064 169.972 25.1863V263.917C169.972 267.224 170.628 270.499 171.902 273.555C173.175 276.611 175.043 279.387 177.396 281.726C179.75 284.065 182.545 285.92 185.62 287.186C188.696 288.451 191.992 289.103 195.321 289.103H288.111C294.834 289.103 301.281 286.449 306.035 281.726C310.789 277.003 313.459 270.596 313.459 263.917V99.676H315.058L315.058 68.7012Z" fill="#E6E6E6"/>
<path d="M289.134 6.55014H277.022C277.58 7.90706 277.792 9.37927 277.642 10.8371C277.491 12.2949 276.982 13.6935 276.159 14.9097C275.336 16.126 274.225 17.1225 272.924 17.8115C271.622 18.5006 270.17 18.8609 268.695 18.8609H215.536C214.061 18.8608 212.609 18.5003 211.308 17.8113C210.006 17.1222 208.895 16.1256 208.072 14.9094C207.25 13.6932 206.741 12.2946 206.59 10.8369C206.44 9.37914 206.652 7.907 207.209 6.55014H195.897C190.876 6.55014 186.061 8.53178 182.511 12.0591C178.961 15.5865 176.966 20.3706 176.966 25.359V263.743C176.966 268.731 178.961 273.515 182.511 277.043C186.061 280.57 190.876 282.552 195.897 282.552H289.134C294.154 282.552 298.969 280.57 302.519 277.043C306.069 273.515 308.064 268.731 308.064 263.743V263.743V25.3586C308.064 20.3703 306.069 15.5862 302.519 12.059C298.969 8.53173 294.154 6.55014 289.134 6.55014V6.55014Z" fill="white"/>
<path d="M230.634 101.51C230.634 99.8438 231.075 98.2069 231.914 96.764C232.753 95.3211 233.96 94.1232 235.412 93.2908C233.96 92.4575 232.313 92.0187 230.636 92.0186C228.959 92.0184 227.312 92.4568 225.859 93.2898C224.407 94.1227 223.201 95.3209 222.363 96.7637C221.524 98.2066 221.083 99.8434 221.083 101.51C221.083 103.176 221.524 104.812 222.363 106.255C223.201 107.698 224.407 108.896 225.859 109.729C227.312 110.562 228.959 111.001 230.636 111.001C232.313 111 233.96 110.562 235.412 109.728C233.96 108.896 232.753 107.698 231.914 106.256C231.076 104.813 230.634 103.176 230.634 101.51V101.51Z" fill="#CCCCCC"/>
<path d="M242.643 101.51C242.642 99.8438 243.084 98.2068 243.923 96.7639C244.761 95.321 245.968 94.1231 247.421 93.2908C245.969 92.4575 244.321 92.0187 242.644 92.0186C240.968 92.0184 239.32 92.4568 237.868 93.2898C236.416 94.1227 235.21 95.3209 234.371 96.7637C233.533 98.2066 233.091 99.8434 233.091 101.51C233.091 103.176 233.533 104.812 234.371 106.255C235.21 107.698 236.416 108.896 237.868 109.729C239.32 110.562 240.968 111.001 242.644 111.001C244.321 111 245.969 110.562 247.421 109.728C245.968 108.896 244.762 107.698 243.923 106.256C243.084 104.813 242.642 103.176 242.643 101.51V101.51Z" fill="#CCCCCC"/>
<path d="M254.378 111.001C259.654 111.001 263.931 106.751 263.931 101.51C263.931 96.268 259.654 92.0187 254.378 92.0187C249.103 92.0187 244.826 96.268 244.826 101.51C244.826 106.751 249.103 111.001 254.378 111.001Z" fill="#63F3FF"/>
<path d="M270.343 131.154H214.67C214.14 131.153 213.632 130.944 213.257 130.571C212.882 130.199 212.672 129.694 212.671 129.168V73.8519C212.672 73.3253 212.882 72.8205 213.257 72.4481C213.632 72.0757 214.14 71.8662 214.67 71.8656H270.343C270.873 71.8662 271.381 72.0757 271.755 72.4481C272.13 72.8205 272.341 73.3253 272.342 73.8519V129.168C272.341 129.694 272.13 130.199 271.755 130.571C271.381 130.944 270.873 131.153 270.343 131.154V131.154ZM214.67 72.6606C214.352 72.6609 214.047 72.7866 213.822 73.01C213.598 73.2334 213.471 73.5364 213.471 73.8523V129.168C213.471 129.484 213.598 129.787 213.822 130.01C214.047 130.234 214.352 130.359 214.67 130.36H270.343C270.661 130.359 270.965 130.234 271.19 130.01C271.415 129.787 271.542 129.484 271.542 129.168V73.8523C271.542 73.5364 271.415 73.2334 271.19 73.01C270.965 72.7866 270.661 72.6609 270.343 72.6606H214.67Z" fill="#CCCCCC"/>
<path d="M282.773 173.556H197.389V174.35H282.773V173.556Z" fill="#CCCCCC"/>
<path d="M200.085 168.595C201.574 168.595 202.782 167.395 202.782 165.916C202.782 164.436 201.574 163.236 200.085 163.236C198.596 163.236 197.389 164.436 197.389 165.916C197.389 167.395 198.596 168.595 200.085 168.595Z" fill="#63F3FF"/>
<path d="M282.773 200.346H197.389V201.141H282.773V200.346Z" fill="#CCCCCC"/>
<path d="M200.085 195.386C201.574 195.386 202.782 194.186 202.782 192.707C202.782 191.227 201.574 190.027 200.085 190.027C198.596 190.027 197.389 191.227 197.389 192.707C197.389 194.186 198.596 195.386 200.085 195.386Z" fill="#63F3FF"/>
<path d="M281.211 230.854H254.227C253.761 230.854 253.314 230.67 252.984 230.342C252.655 230.015 252.469 229.571 252.469 229.108V219.711C252.469 219.247 252.655 218.803 252.984 218.476C253.314 218.148 253.761 217.964 254.227 217.964H281.211C281.677 217.964 282.124 218.148 282.453 218.476C282.783 218.803 282.968 219.247 282.969 219.711V229.108C282.968 229.571 282.783 230.015 282.453 230.342C282.124 230.67 281.677 230.854 281.211 230.854V230.854Z" fill="#63F3FF"/>
<path d="M208.881 168.595C210.37 168.595 211.577 167.395 211.577 165.916C211.577 164.436 210.37 163.236 208.881 163.236C207.392 163.236 206.184 164.436 206.184 165.916C206.184 167.395 207.392 168.595 208.881 168.595Z" fill="#63F3FF"/>
<path d="M217.677 168.595C219.166 168.595 220.373 167.395 220.373 165.916C220.373 164.436 219.166 163.236 217.677 163.236C216.188 163.236 214.98 164.436 214.98 165.916C214.98 167.395 216.188 168.595 217.677 168.595Z" fill="#63F3FF"/>
<path d="M208.881 195.386C210.37 195.386 211.577 194.186 211.577 192.707C211.577 191.227 210.37 190.027 208.881 190.027C207.392 190.027 206.184 191.227 206.184 192.707C206.184 194.186 207.392 195.386 208.881 195.386Z" fill="#63F3FF"/>
<path d="M217.677 195.386C219.166 195.386 220.373 194.186 220.373 192.707C220.373 191.227 219.166 190.027 217.677 190.027C216.188 190.027 214.98 191.227 214.98 192.707C214.98 194.186 216.188 195.386 217.677 195.386Z" fill="#63F3FF"/>
<path d="M401.913 290H121.408C120.807 290 120.321 289.788 120.321 289.527C120.321 289.266 120.807 289.054 121.408 289.054H401.913C402.513 289.054 403 289.266 403 289.527C403 289.788 402.513 290 401.913 290Z" fill="#3F3D56"/>
<path d="M332.61 189.999C332.802 190.086 332.986 190.188 333.161 190.305L350.684 182.874L351.31 178.287L358.311 178.245L357.898 188.764L334.769 194.841C334.721 195.001 334.662 195.157 334.594 195.31C334.26 196.019 333.722 196.614 333.049 197.02C332.375 197.426 331.596 197.626 330.808 197.593C330.021 197.561 329.261 197.298 328.623 196.838C327.986 196.378 327.5 195.741 327.225 195.007C326.951 194.273 326.901 193.475 327.082 192.713C327.263 191.95 327.666 191.258 328.241 190.723C328.817 190.188 329.538 189.834 330.316 189.705C331.093 189.576 331.891 189.679 332.61 189.999V189.999Z" fill="#FFB8B8"/>
<path d="M360.858 285.32H356.068L353.789 266.964L360.858 266.964L360.858 285.32Z" fill="#FFB8B8"/>
<path d="M352.647 283.96H361.884V289.739H346.831C346.831 288.206 347.443 286.737 348.534 285.653C349.625 284.569 351.104 283.96 352.647 283.96Z" fill="#2F2E41"/>
<path d="M379.486 283.975L374.719 284.442L370.64 266.396L377.675 265.708L379.486 283.975Z" fill="#FFB8B8"/>
<path d="M371.18 283.422L380.373 282.522L380.943 288.273L365.962 289.739C365.887 288.984 365.963 288.222 366.185 287.495C366.406 286.769 366.77 286.094 367.254 285.507C367.739 284.92 368.335 284.434 369.008 284.076C369.682 283.719 370.42 283.496 371.18 283.422Z" fill="#2F2E41"/>
<path d="M362.191 158.818C367.49 158.818 371.787 154.549 371.787 149.284C371.787 144.018 367.49 139.75 362.191 139.75C356.891 139.75 352.595 144.018 352.595 149.284C352.595 154.549 356.891 158.818 362.191 158.818Z" fill="#FFB8B8"/>
<path d="M354.998 281.608C354.586 281.609 354.187 281.466 353.872 281.203C353.556 280.94 353.344 280.576 353.273 280.173C350.794 266.499 342.69 221.788 342.496 220.55C342.492 220.522 342.49 220.493 342.49 220.464V217.13C342.49 217.009 342.528 216.89 342.599 216.792L343.67 215.302C343.721 215.23 343.787 215.171 343.865 215.129C343.942 215.087 344.028 215.063 344.116 215.059C350.22 214.775 370.208 213.942 371.174 215.141C372.143 216.345 371.801 219.995 371.722 220.715L371.726 220.79L380.706 277.85C380.776 278.306 380.663 278.77 380.392 279.143C380.12 279.516 379.712 279.768 379.255 279.844L373.646 280.762C373.228 280.828 372.8 280.744 372.44 280.524C372.08 280.303 371.811 279.962 371.683 279.561C369.948 274.054 364.131 255.526 362.115 248.357C362.102 248.311 362.074 248.272 362.034 248.246C361.994 248.22 361.947 248.21 361.9 248.216C361.853 248.223 361.81 248.246 361.779 248.282C361.748 248.318 361.731 248.364 361.732 248.411C361.833 255.245 362.076 272.681 362.16 278.703L362.169 279.352C362.173 279.791 362.011 280.215 361.715 280.541C361.419 280.867 361.01 281.071 360.57 281.112L355.162 281.601C355.107 281.606 355.052 281.608 354.998 281.608Z" fill="#2F2E41"/>
<path d="M356.101 162.567C354.427 163.556 353.424 165.373 352.85 167.223C351.785 170.647 351.144 174.187 350.941 177.766L350.334 188.479L342.811 216.883C349.331 222.364 353.092 221.118 361.869 216.635C370.645 212.151 371.648 218.129 371.648 218.129L373.403 193.962L375.911 167.553C375.348 166.88 374.711 166.271 374.012 165.739C371.694 163.948 368.997 162.703 366.125 162.099C363.253 161.494 360.28 161.544 357.43 162.247L356.101 162.567Z" fill="#63F3FF"/>
<path d="M353.658 195.735C353.86 195.811 354.056 195.902 354.244 196.009L371.57 187.392L371.858 182.724L379.005 182.234L379.388 192.875L356.234 200.483C356.045 201.289 355.613 202.019 354.997 202.575C354.38 203.131 353.608 203.487 352.783 203.597C351.957 203.706 351.118 203.563 350.376 203.187C349.635 202.811 349.026 202.22 348.631 201.491C348.236 200.763 348.073 199.933 348.165 199.11C348.256 198.288 348.597 197.513 349.143 196.888C349.689 196.263 350.413 195.818 351.22 195.612C352.026 195.406 352.876 195.449 353.658 195.735Z" fill="#FFB8B8"/>
<path d="M375.786 167.674C380.048 169.169 380.799 185.365 380.799 185.365C375.784 182.624 369.766 187.109 369.766 187.109C369.766 187.109 368.512 182.873 367.008 177.392C366.553 175.85 366.499 174.219 366.85 172.651C367.2 171.083 367.945 169.628 369.014 168.423C369.014 168.423 371.523 166.178 375.786 167.674Z" fill="#63F3FF"/>
<path d="M370.795 151.805C369.599 150.855 367.968 152.582 367.968 152.582L367.012 144.029C367.012 144.029 361.034 144.741 357.208 143.792C353.382 142.843 352.784 147.237 352.784 147.237C352.587 145.462 352.547 143.673 352.665 141.891C352.904 139.753 356.013 137.615 361.512 136.189C367.012 134.763 369.881 140.941 369.881 140.941C373.707 142.841 371.99 152.755 370.795 151.805Z" fill="#2F2E41"/>
</g>
<path opacity="0.65" d="M14.028 82.228L11.298 92H8.988L7.154 85.042L5.236 92L2.94 92.014L0.308 82.228H2.408L4.13 89.816L6.118 82.228H8.302L10.178 89.774L11.914 82.228H14.028ZM22.5178 87.954C22.5178 88.234 22.4991 88.486 22.4618 88.71H16.7918C16.8385 89.27 17.0345 89.7087 17.3798 90.026C17.7251 90.3433 18.1498 90.502 18.6538 90.502C19.3818 90.502 19.8998 90.1893 20.2078 89.564H22.3218C22.0978 90.3107 21.6685 90.9267 21.0338 91.412C20.3991 91.888 19.6198 92.126 18.6958 92.126C17.9491 92.126 17.2771 91.9627 16.6798 91.636C16.0918 91.3 15.6298 90.8287 15.2938 90.222C14.9671 89.6153 14.8038 88.9153 14.8038 88.122C14.8038 87.3193 14.9671 86.6147 15.2938 86.008C15.6205 85.4013 16.0778 84.9347 16.6658 84.608C17.2538 84.2813 17.9305 84.118 18.6958 84.118C19.4331 84.118 20.0911 84.2767 20.6698 84.594C21.2578 84.9113 21.7105 85.364 22.0278 85.952C22.3545 86.5307 22.5178 87.198 22.5178 87.954ZM20.4878 87.394C20.4785 86.89 20.2965 86.4887 19.9418 86.19C19.5871 85.882 19.1531 85.728 18.6398 85.728C18.1545 85.728 17.7438 85.8773 17.4078 86.176C17.0811 86.4653 16.8805 86.8713 16.8058 87.394H20.4878ZM25.9084 81.64V92H23.9484V81.64H25.9084ZM27.3409 88.122C27.3409 87.3193 27.5042 86.6193 27.8309 86.022C28.1576 85.4153 28.6102 84.9487 29.1889 84.622C29.7676 84.286 30.4302 84.118 31.1769 84.118C32.1382 84.118 32.9316 84.3607 33.5569 84.846C34.1916 85.322 34.6162 85.994 34.8309 86.862H32.7169C32.6049 86.526 32.4136 86.2647 32.1429 86.078C31.8816 85.882 31.5549 85.784 31.1629 85.784C30.6029 85.784 30.1596 85.9893 29.8329 86.4C29.5062 86.8013 29.3429 87.3753 29.3429 88.122C29.3429 88.8593 29.5062 89.4333 29.8329 89.844C30.1596 90.2453 30.6029 90.446 31.1629 90.446C31.9562 90.446 32.4742 90.0913 32.7169 89.382H34.8309C34.6162 90.222 34.1916 90.8893 33.5569 91.384C32.9222 91.8787 32.1289 92.126 31.1769 92.126C30.4302 92.126 29.7676 91.9627 29.1889 91.636C28.6102 91.3 28.1576 90.8333 27.8309 90.236C27.5042 89.6293 27.3409 88.9247 27.3409 88.122ZM39.7108 92.126C38.9641 92.126 38.2921 91.9627 37.6948 91.636C37.0974 91.3 36.6261 90.8287 36.2808 90.222C35.9448 89.6153 35.7768 88.9153 35.7768 88.122C35.7768 87.3287 35.9494 86.6287 36.2948 86.022C36.6494 85.4153 37.1301 84.9487 37.7368 84.622C38.3434 84.286 39.0201 84.118 39.7668 84.118C40.5134 84.118 41.1901 84.286 41.7968 84.622C42.4034 84.9487 42.8794 85.4153 43.2248 86.022C43.5794 86.6287 43.7568 87.3287 43.7568 88.122C43.7568 88.9153 43.5748 89.6153 43.2108 90.222C42.8561 90.8287 42.3708 91.3 41.7548 91.636C41.1481 91.9627 40.4668 92.126 39.7108 92.126ZM39.7108 90.418C40.0654 90.418 40.3968 90.334 40.7048 90.166C41.0221 89.9887 41.2741 89.7273 41.4608 89.382C41.6474 89.0367 41.7408 88.6167 41.7408 88.122C41.7408 87.3847 41.5448 86.82 41.1528 86.428C40.7701 86.0267 40.2988 85.826 39.7388 85.826C39.1788 85.826 38.7074 86.0267 38.3248 86.428C37.9514 86.82 37.7648 87.3847 37.7648 88.122C37.7648 88.8593 37.9468 89.4287 38.3108 89.83C38.6841 90.222 39.1508 90.418 39.7108 90.418ZM54.8265 84.132C55.7785 84.132 56.5438 84.426 57.1225 85.014C57.7105 85.5927 58.0045 86.4047 58.0045 87.45V92H56.0445V87.716C56.0445 87.1093 55.8905 86.6473 55.5825 86.33C55.2745 86.0033 54.8545 85.84 54.3225 85.84C53.7905 85.84 53.3658 86.0033 53.0485 86.33C52.7405 86.6473 52.5865 87.1093 52.5865 87.716V92H50.6265V87.716C50.6265 87.1093 50.4725 86.6473 50.1645 86.33C49.8565 86.0033 49.4365 85.84 48.9045 85.84C48.3632 85.84 47.9338 86.0033 47.6165 86.33C47.3085 86.6473 47.1545 87.1093 47.1545 87.716V92H45.1945V84.244H47.1545V85.182C47.4065 84.8553 47.7285 84.5987 48.1205 84.412C48.5218 84.2253 48.9605 84.132 49.4365 84.132C50.0432 84.132 50.5845 84.2627 51.0605 84.524C51.5365 84.776 51.9052 85.14 52.1665 85.616C52.4185 85.168 52.7825 84.8087 53.2585 84.538C53.7438 84.2673 54.2665 84.132 54.8265 84.132ZM67.0744 87.954C67.0744 88.234 67.0558 88.486 67.0184 88.71H61.3484C61.3951 89.27 61.5911 89.7087 61.9364 90.026C62.2818 90.3433 62.7064 90.502 63.2104 90.502C63.9384 90.502 64.4564 90.1893 64.7644 89.564H66.8784C66.6544 90.3107 66.2251 90.9267 65.5904 91.412C64.9558 91.888 64.1764 92.126 63.2524 92.126C62.5058 92.126 61.8338 91.9627 61.2364 91.636C60.6484 91.3 60.1864 90.8287 59.8504 90.222C59.5238 89.6153 59.3604 88.9153 59.3604 88.122C59.3604 87.3193 59.5238 86.6147 59.8504 86.008C60.1771 85.4013 60.6344 84.9347 61.2224 84.608C61.8104 84.2813 62.4871 84.118 63.2524 84.118C63.9898 84.118 64.6478 84.2767 65.2264 84.594C65.8144 84.9113 66.2671 85.364 66.5844 85.952C66.9111 86.5307 67.0744 87.198 67.0744 87.954ZM65.0444 87.394C65.0351 86.89 64.8531 86.4887 64.4984 86.19C64.1438 85.882 63.7098 85.728 63.1964 85.728C62.7111 85.728 62.3004 85.8773 61.9644 86.176C61.6378 86.4653 61.4371 86.8713 61.3624 87.394H65.0444ZM73.801 85.378C74.053 85.0047 74.3983 84.7013 74.837 84.468C75.285 84.2347 75.7937 84.118 76.363 84.118C77.0257 84.118 77.623 84.2813 78.155 84.608C78.6963 84.9347 79.121 85.4013 79.429 86.008C79.7463 86.6053 79.905 87.3007 79.905 88.094C79.905 88.8873 79.7463 89.592 79.429 90.208C79.121 90.8147 78.6963 91.286 78.155 91.622C77.623 91.958 77.0257 92.126 76.363 92.126C75.7843 92.126 75.2757 92.014 74.837 91.79C74.4077 91.5567 74.0623 91.258 73.801 90.894V92H71.841V81.64H73.801V85.378ZM77.903 88.094C77.903 87.6273 77.805 87.226 77.609 86.89C77.4223 86.5447 77.1703 86.2833 76.853 86.106C76.545 85.9287 76.209 85.84 75.845 85.84C75.4903 85.84 75.1543 85.9333 74.837 86.12C74.529 86.2973 74.277 86.5587 74.081 86.904C73.8943 87.2493 73.801 87.6553 73.801 88.122C73.801 88.5887 73.8943 88.9947 74.081 89.34C74.277 89.6853 74.529 89.9513 74.837 90.138C75.1543 90.3153 75.4903 90.404 75.845 90.404C76.209 90.404 76.545 90.3107 76.853 90.124C77.1703 89.9373 77.4223 89.6713 77.609 89.326C77.805 88.9807 77.903 88.57 77.903 88.094ZM80.8253 88.094C80.8253 87.31 80.9793 86.6147 81.2873 86.008C81.6046 85.4013 82.0293 84.9347 82.5613 84.608C83.1026 84.2813 83.7046 84.118 84.3673 84.118C84.9459 84.118 85.4499 84.2347 85.8793 84.468C86.3179 84.7013 86.6679 84.9953 86.9293 85.35V84.244H88.9033V92H86.9293V90.866C86.6773 91.23 86.3273 91.5333 85.8793 91.776C85.4406 92.0093 84.9319 92.126 84.3533 92.126C83.6999 92.126 83.1026 91.958 82.5613 91.622C82.0293 91.286 81.6046 90.8147 81.2873 90.208C80.9793 89.592 80.8253 88.8873 80.8253 88.094ZM86.9293 88.122C86.9293 87.646 86.8359 87.24 86.6493 86.904C86.4626 86.5587 86.2106 86.2973 85.8933 86.12C85.5759 85.9333 85.2353 85.84 84.8713 85.84C84.5073 85.84 84.1713 85.9287 83.8633 86.106C83.5553 86.2833 83.3033 86.5447 83.1073 86.89C82.9206 87.226 82.8273 87.6273 82.8273 88.094C82.8273 88.5607 82.9206 88.9713 83.1073 89.326C83.3033 89.6713 83.5553 89.9373 83.8633 90.124C84.1806 90.3107 84.5166 90.404 84.8713 90.404C85.2353 90.404 85.5759 90.3153 85.8933 90.138C86.2106 89.9513 86.4626 89.69 86.6493 89.354C86.8359 89.0087 86.9293 88.598 86.9293 88.122ZM90.3136 88.122C90.3136 87.3193 90.4769 86.6193 90.8036 86.022C91.1302 85.4153 91.5829 84.9487 92.1616 84.622C92.7402 84.286 93.4029 84.118 94.1496 84.118C95.1109 84.118 95.9042 84.3607 96.5296 84.846C97.1642 85.322 97.5889 85.994 97.8036 86.862H95.6896C95.5776 86.526 95.3862 86.2647 95.1156 86.078C94.8542 85.882 94.5276 85.784 94.1356 85.784C93.5756 85.784 93.1322 85.9893 92.8056 86.4C92.4789 86.8013 92.3156 87.3753 92.3156 88.122C92.3156 88.8593 92.4789 89.4333 92.8056 89.844C93.1322 90.2453 93.5756 90.446 94.1356 90.446C94.9289 90.446 95.4469 90.0913 95.6896 89.382H97.8036C97.5889 90.222 97.1642 90.8893 96.5296 91.384C95.8949 91.8787 95.1016 92.126 94.1496 92.126C93.4029 92.126 92.7402 91.9627 92.1616 91.636C91.5829 91.3 91.1302 90.8333 90.8036 90.236C90.4769 89.6293 90.3136 88.9247 90.3136 88.122ZM103.831 92L101.199 88.696V92H99.2394V81.64H101.199V87.534L103.803 84.244H106.351L102.935 88.136L106.379 92H103.831ZM109.949 82.06L109.725 88.822H108.073L107.835 82.06H109.949ZM108.941 92.098C108.587 92.098 108.293 91.9907 108.059 91.776C107.835 91.552 107.723 91.2767 107.723 90.95C107.723 90.6233 107.835 90.3527 108.059 90.138C108.293 89.914 108.587 89.802 108.941 89.802C109.287 89.802 109.571 89.914 109.795 90.138C110.019 90.3527 110.131 90.6233 110.131 90.95C110.131 91.2767 110.019 91.552 109.795 91.776C109.571 91.9907 109.287 92.098 108.941 92.098Z" fill="black"/>
<defs>
<clipPath id="clip0_463_195">
<rect width="291" height="290" fill="white" transform="translate(112)"/>
</clipPath>
</defs>
</svg>
