<svg width="324" height="250" viewBox="0 0 324 250" fill="none" xmlns="http://www.w3.org/2000/svg">
<g clip-path="url(#clip0_9_57)">
<path d="M14.3269 242.869C24.3965 250.123 37.4459 250.487 50.0595 249.596C51.8208 249.472 53.5697 249.326 55.3024 249.168C55.3128 249.166 55.3266 249.167 55.3372 249.164C55.4205 249.156 55.5039 249.148 55.5836 249.143C55.9412 249.11 56.299 249.076 56.6533 249.043L56.5696 249.202L56.3069 249.698C56.4013 249.532 56.4956 249.37 56.59 249.204C56.6178 249.154 56.6489 249.105 56.6765 249.055C59.9442 243.368 63.1851 237.473 64.0117 230.98C64.8662 224.241 62.4648 216.609 56.5332 213.297C55.7553 212.864 54.9315 212.519 54.0771 212.268C53.7223 212.16 53.3628 212.073 52.9992 211.996C50.7746 211.502 48.4586 211.609 46.2893 212.307C44.12 213.005 42.1757 214.268 40.6564 215.966C39.1371 217.664 38.0975 219.737 37.6446 221.97C37.1917 224.203 37.3418 226.517 38.0795 228.673C33.0506 223.516 33.9887 215.151 35.7234 208.159C37.4615 201.168 39.5656 193.389 36.0305 187.109C34.0654 183.614 30.6096 181.445 26.7315 180.572C26.6125 180.546 26.4937 180.52 26.3745 180.498C21.7537 179.562 16.95 180.404 12.9227 182.855C5.50729 187.528 1.69864 196.388 0.462508 205.067C-1.52913 219.034 2.87839 234.62 14.3269 242.869Z" fill="#F2F2F2"/>
<path d="M17.578 220.48C17.8703 223.561 18.6103 226.583 19.7747 229.45C20.8477 231.987 22.2941 234.349 24.0657 236.459C27.6849 240.812 32.4703 244.085 37.6675 246.266C41.6414 247.894 45.805 249.013 50.0594 249.596C51.8208 249.472 53.5696 249.326 55.3023 249.169C55.3128 249.166 55.3265 249.167 55.3371 249.164C55.4204 249.156 55.5038 249.148 55.5835 249.144C55.9411 249.11 56.2989 249.077 56.6532 249.043L56.5695 249.203L56.3068 249.698C56.4012 249.532 56.4956 249.37 56.59 249.204C56.6177 249.154 56.6488 249.105 56.6764 249.055C53.4869 245.877 51.1055 241.981 49.7318 237.693C48.3581 233.406 48.0321 228.851 48.7812 224.411C49.565 220.003 51.3796 215.842 54.077 212.268C53.7223 212.161 53.3627 212.073 52.9991 211.996C51.974 213.397 51.0747 214.887 50.3119 216.446C47.5749 222.009 46.7017 228.306 47.8216 234.404C48.8627 239.922 51.4566 245.028 55.2986 249.123C54.9622 249.1 54.6225 249.072 54.2901 249.042C47.9937 248.509 41.7102 247.155 35.9993 244.382C31.1178 242.07 26.8798 238.593 23.6586 234.257C20.1999 229.487 18.6759 223.749 18.4141 217.917C18.1364 211.674 18.9465 205.321 20.3713 199.25C21.8261 193.026 24.0372 187.003 26.9551 181.316C27.0204 181.187 27.0335 181.038 26.9919 180.899C26.9503 180.761 26.857 180.644 26.7314 180.572C26.6268 180.501 26.4985 180.475 26.3745 180.499C26.3138 180.515 26.2575 180.544 26.2098 180.585C26.1621 180.626 26.1243 180.677 26.0991 180.734C25.7391 181.437 25.3858 182.14 25.046 182.851C22.2157 188.772 20.132 195.022 18.8427 201.457C17.5911 207.665 16.923 214.159 17.578 220.48Z" fill="white"/>
<path d="M316.575 214.939H150.035C148.318 214.937 146.671 214.254 145.456 213.039C144.242 211.825 143.559 210.178 143.557 208.46V6.47866C143.559 4.761 144.242 3.11426 145.456 1.89969C146.671 0.685125 148.318 0.00193364 150.035 0H316.575C318.293 0.00193364 319.939 0.685125 321.154 1.89969C322.369 3.11426 323.052 4.761 323.054 6.47866V208.46C323.052 210.178 322.369 211.825 321.154 213.039C319.939 214.254 318.293 214.937 316.575 214.939ZM150.035 0.762195C148.52 0.76391 147.067 1.36673 145.995 2.4384C144.923 3.51007 144.321 4.96308 144.319 6.47866V208.46C144.321 209.976 144.923 211.429 145.995 212.501C147.067 213.572 148.52 214.175 150.035 214.177H316.575C318.091 214.175 319.544 213.572 320.615 212.501C321.687 211.429 322.29 209.976 322.292 208.46V6.47866C322.29 4.96308 321.687 3.51007 320.615 2.4384C319.544 1.36673 318.091 0.76391 316.575 0.762195H150.035Z" fill="#3F3D56"/>
<path d="M322.673 15.85H143.938V16.6122H322.673V15.85Z" fill="#3F3D56"/>
<path d="M152.703 11.4329C154.387 11.4329 155.752 10.0679 155.752 8.38414C155.752 6.70034 154.387 5.33536 152.703 5.33536C151.019 5.33536 149.654 6.70034 149.654 8.38414C149.654 10.0679 151.019 11.4329 152.703 11.4329Z" fill="#3F3D56"/>
<path d="M162.23 11.4329C163.914 11.4329 165.279 10.0679 165.279 8.38414C165.279 6.70034 163.914 5.33536 162.23 5.33536C160.547 5.33536 159.182 6.70034 159.182 8.38414C159.182 10.0679 160.547 11.4329 162.23 11.4329Z" fill="#3F3D56"/>
<path d="M171.758 11.4329C173.442 11.4329 174.807 10.0679 174.807 8.38414C174.807 6.70034 173.442 5.33536 171.758 5.33536C170.074 5.33536 168.709 6.70034 168.709 8.38414C168.709 10.0679 170.074 11.4329 171.758 11.4329Z" fill="#3F3D56"/>
<path d="M290.759 46.1128H171.857C170.543 46.1128 169.283 45.5908 168.354 44.6617C167.425 43.7326 166.903 42.4725 166.903 41.1585C166.903 39.8446 167.425 38.5844 168.354 37.6553C169.283 36.7262 170.543 36.2043 171.857 36.2043H290.759C292.073 36.2043 293.334 36.7262 294.263 37.6553C295.192 38.5844 295.714 39.8446 295.714 41.1585C295.714 42.4725 295.192 43.7326 294.263 44.6617C293.334 45.5908 292.073 46.1128 290.759 46.1128ZM171.857 36.9665C170.745 36.9665 169.679 37.4081 168.893 38.1943C168.107 38.9805 167.665 40.0467 167.665 41.1585C167.665 42.2703 168.107 43.3366 168.893 44.1228C169.679 44.9089 170.745 45.3506 171.857 45.3506H290.759C291.871 45.3506 292.938 44.9089 293.724 44.1228C294.51 43.3366 294.952 42.2703 294.952 41.1585C294.952 40.0467 294.51 38.9805 293.724 38.1943C292.938 37.4081 291.871 36.9665 290.759 36.9665H171.857Z" fill="#3F3D56"/>
<path d="M216.346 115.854H169.471C167.754 115.852 166.107 115.169 164.892 113.954C163.678 112.739 162.995 111.093 162.993 109.375V70.8841C162.995 69.1665 163.678 67.5197 164.892 66.3052C166.107 65.0906 167.754 64.4074 169.471 64.4055H216.346C218.064 64.4074 219.711 65.0906 220.925 66.3052C222.14 67.5197 222.823 69.1665 222.825 70.8841V109.375C222.823 111.093 222.14 112.739 220.925 113.954C219.711 115.169 218.064 115.852 216.346 115.854ZM169.471 65.1677C167.956 65.1694 166.503 65.7722 165.431 66.8439C164.359 67.9156 163.757 69.3686 163.755 70.8841V109.375C163.757 110.891 164.359 112.344 165.431 113.415C166.503 114.487 167.956 115.09 169.471 115.091H216.346C217.862 115.09 219.315 114.487 220.387 113.415C221.458 112.344 222.061 110.891 222.063 109.375V70.8841C222.061 69.3686 221.458 67.9156 220.387 66.8439C219.315 65.7722 217.862 65.1694 216.346 65.1677H169.471Z" fill="#3F3D56"/>
<path d="M297.139 66.3111H250.264C246.896 66.3111 244.167 69.0411 244.167 72.4087V110.899C244.167 114.267 246.896 116.997 250.264 116.997H297.139C300.507 116.997 303.237 114.267 303.237 110.899V72.4087C303.237 69.0411 300.507 66.3111 297.139 66.3111Z" fill="#F2F2F2"/>
<path d="M216.346 187.5H169.471C167.754 187.498 166.107 186.815 164.892 185.6C163.678 184.386 162.995 182.739 162.993 181.021V142.53C162.995 140.813 163.678 139.166 164.892 137.952C166.107 136.737 167.754 136.054 169.471 136.052H216.346C218.064 136.054 219.711 136.737 220.925 137.952C222.14 139.166 222.823 140.813 222.825 142.53V181.021C222.823 182.739 222.14 184.386 220.925 185.6C219.711 186.815 218.064 187.498 216.346 187.5ZM169.471 136.814C167.956 136.816 166.503 137.419 165.431 138.49C164.359 139.562 163.757 141.015 163.755 142.53V181.021C163.757 182.537 164.359 183.99 165.431 185.062C166.503 186.133 167.956 186.736 169.471 186.738H216.346C217.862 186.736 219.315 186.133 220.387 185.062C221.458 183.99 222.061 182.537 222.063 181.021V142.53C222.061 141.015 221.458 139.562 220.387 138.49C219.315 137.419 217.862 136.816 216.346 136.814H169.471Z" fill="#3F3D56"/>
<path d="M297.139 137.957H250.264C246.896 137.957 244.167 140.687 244.167 144.055V182.546C244.167 185.913 246.896 188.643 250.264 188.643H297.139C300.507 188.643 303.237 185.913 303.237 182.546V144.055C303.237 140.687 300.507 137.957 297.139 137.957Z" fill="#F2F2F2"/>
<path d="M181.244 106.545C181.235 106.545 181.227 106.544 181.219 106.544L175.887 106.347C175.721 106.342 175.562 106.277 175.44 106.164C175.318 106.051 175.241 105.897 175.223 105.732C174.856 102.458 173.346 85.7735 179.672 78.839C180.568 77.8377 181.675 77.0483 182.913 76.5281C184.152 76.0078 185.49 75.7698 186.832 75.8313C186.887 75.8348 186.941 75.8232 186.99 75.798C187.038 75.7727 187.079 75.7347 187.107 75.688L188.398 73.6597C188.468 73.5498 188.568 73.4619 188.686 73.4059C188.804 73.35 188.936 73.3282 189.066 73.343C190.1 73.4681 195.375 74.0583 197.593 73.4161C197.724 73.3776 197.863 73.3784 197.994 73.4185C198.124 73.4586 198.24 73.5362 198.326 73.6417L200.021 75.7131C200.05 75.7506 200.088 75.7806 200.131 75.8005C200.174 75.8205 200.221 75.8298 200.269 75.8278C201.131 75.8105 204.153 75.9774 206.799 78.9363C209.663 82.1402 212.62 89.3692 210.436 105.612C210.413 105.778 210.33 105.931 210.204 106.042C210.077 106.153 209.915 106.215 209.746 106.215H205.547C205.38 106.215 205.219 106.154 205.093 106.045C204.967 105.936 204.884 105.786 204.86 105.621L203.488 96.1558C203.477 96.078 203.437 96.0073 203.376 95.9577C203.315 95.9081 203.237 95.8832 203.159 95.888C203.08 95.8929 203.007 95.927 202.952 95.9837C202.898 96.0404 202.866 96.1155 202.865 96.1942L202.77 100.638C202.767 100.77 202.727 100.898 202.654 101.008C202.581 101.118 202.478 101.204 202.358 101.258C200.861 101.916 192.951 105.003 184.209 101.137C184.091 101.084 183.989 100.999 183.917 100.892C183.844 100.784 183.802 100.659 183.796 100.53L183.624 96.4919C183.621 96.4131 183.588 96.3384 183.532 96.2828C183.476 96.2272 183.401 96.1949 183.322 96.1921C183.243 96.1894 183.166 96.2165 183.107 96.268C183.047 96.3195 183.009 96.3917 183 96.4701L181.934 105.928C181.914 106.097 181.833 106.254 181.706 106.367C181.579 106.481 181.414 106.544 181.244 106.545Z" fill="#63F3FF"/>
<path d="M203.3 176.272H203.296L182.404 176.14C182.252 176.139 182.105 176.082 181.992 175.981C181.879 175.88 181.807 175.741 181.789 175.59L179.687 157.727C179.674 157.611 179.62 157.505 179.535 157.426C179.45 157.347 179.339 157.302 179.223 157.299C177.564 157.245 173.618 156.867 172.801 154.531C172.072 152.451 174.064 149.382 178.721 145.411C178.8 145.343 178.895 145.296 178.997 145.275C179.099 145.253 179.205 145.257 179.305 145.287C179.405 145.317 179.496 145.371 179.569 145.445C179.643 145.519 179.696 145.61 179.726 145.71L182.143 154.051C182.173 154.151 182.233 154.239 182.317 154.302C182.4 154.365 182.501 154.399 182.605 154.401L202.414 154.533C202.518 154.535 202.62 154.502 202.703 154.441C202.787 154.38 202.849 154.293 202.88 154.194L205.57 145.635C205.6 145.54 205.652 145.453 205.723 145.382C205.794 145.311 205.88 145.258 205.976 145.228C206.071 145.198 206.172 145.191 206.271 145.208C206.37 145.225 206.463 145.266 206.542 145.327C208.378 146.728 214.291 151.541 213.317 154.619C212.808 156.231 210.509 157.13 206.484 157.29C206.369 157.294 206.258 157.34 206.173 157.418C206.088 157.496 206.035 157.603 206.022 157.718L203.919 175.721C203.901 175.873 203.829 176.013 203.714 176.115C203.6 176.216 203.453 176.272 203.3 176.272Z" fill="#63F3FF"/>
<path d="M294.852 101.049C288.287 102.313 282.096 105.055 276.748 109.067C276.478 108.347 275.968 107.742 275.305 107.353C274.852 107.072 274.357 106.864 273.84 106.737C273.369 106.617 272.916 106.903 272.501 107.316C272.023 107.845 271.622 108.439 271.31 109.079C264.135 104.155 253.252 101.012 253.252 101.012V100.027C253.261 99.7953 253.284 99.564 253.323 99.3349C253.36 99.0702 253.406 98.8363 253.464 98.5501C254.388 93.8532 258.038 83.1207 258.038 83.1207H262.165L270.168 84.7827L279.171 84.2318L288.238 82.345L289.414 82.0988C291.374 83.6377 293.6 94.4103 294.474 98.9964C294.585 99.5781 294.671 100.058 294.736 100.412C294.812 100.812 294.852 101.049 294.852 101.049Z" fill="white"/>
<path d="M270.225 148.331C270.225 148.331 268.307 148.81 265.334 156.863C262.361 164.916 261.308 175.321 261.308 175.321C261.308 175.321 259.636 178.152 266.772 178.341C266.772 178.341 266.198 180.211 270.225 179.924C274.251 179.637 273.672 179.64 273.672 179.64C273.672 179.64 276.26 178.01 277.411 178.297C278.562 178.584 279.281 178.681 280.526 179.735C281.772 180.788 285.754 180.359 285.801 179.545C285.833 179.145 285.833 178.744 285.801 178.344C285.801 178.344 291.89 178.729 290.739 174.318C289.588 169.907 288.63 162.667 288.63 162.667C288.63 162.667 285.514 148.526 281.964 148.333C278.414 148.141 270.225 148.331 270.225 148.331Z" fill="white"/>
<path d="M73.4147 134.755C79.7289 134.755 84.8475 129.636 84.8475 123.322C84.8475 117.007 79.7289 111.889 73.4147 111.889C67.1005 111.889 61.9818 117.007 61.9818 123.322C61.9818 129.636 67.1005 134.755 73.4147 134.755Z" fill="#2F2E41"/>
<path d="M74.375 134.776C79.5445 134.776 83.7352 130.586 83.7352 125.416C83.7352 120.247 79.5445 116.056 74.375 116.056C69.2055 116.056 65.0149 120.247 65.0149 125.416C65.0149 130.586 69.2055 134.776 74.375 134.776Z" fill="#FFB8B8"/>
<path d="M110.022 153.886C109.874 154.036 109.737 154.197 109.614 154.368L90.7257 153.7L88.5654 149.649L82.0248 152.11L85.1523 159.654C85.4049 160.264 85.8484 160.775 86.4163 161.11C86.9841 161.446 87.6456 161.589 88.3014 161.517L109.675 159.17C110.172 159.813 110.852 160.29 111.626 160.536C112.4 160.783 113.231 160.788 114.008 160.551C114.785 160.314 115.472 159.846 115.976 159.21C116.481 158.573 116.78 157.798 116.833 156.987C116.886 156.177 116.691 155.369 116.274 154.672C115.858 153.975 115.238 153.421 114.499 153.084C113.76 152.748 112.935 152.644 112.136 152.787C111.336 152.93 110.599 153.314 110.022 153.886H110.022Z" fill="#FFB8B8"/>
<path d="M79.5089 155.753C79.2682 155.645 79.0536 155.486 78.8798 155.288C78.706 155.089 78.5771 154.856 78.5018 154.603L75.871 145.773C75.2997 144.551 75.2366 143.151 75.6955 141.882C76.1545 140.613 77.098 139.578 78.3192 139.003C79.5404 138.428 80.9396 138.361 82.2101 138.817C83.4806 139.272 84.5187 140.213 85.0967 141.432L90.1928 149.144C90.3383 149.364 90.4345 149.612 90.4751 149.873C90.5157 150.134 90.4996 150.4 90.428 150.654C90.3564 150.908 90.2309 151.143 90.06 151.344C89.8892 151.545 89.677 151.707 89.438 151.819L81.0376 155.742C80.7986 155.853 80.5383 155.912 80.2745 155.914C80.0106 155.916 79.7495 155.861 79.5089 155.753Z" fill="#CCCCCC"/>
<path d="M98.1121 245.399L102.216 243.165L95.5522 226.274L89.4958 229.571L98.1121 245.399Z" fill="#FFB8B8"/>
<path d="M96.3362 244.629L104.418 240.23L104.418 240.23C105.094 239.861 105.836 239.63 106.602 239.549C107.368 239.467 108.142 239.538 108.881 239.756C109.619 239.974 110.308 240.335 110.907 240.819C111.506 241.303 112.003 241.9 112.371 242.576L112.463 242.744L99.231 249.947L96.3362 244.629Z" fill="#2F2E41"/>
<path d="M52.9569 245.417H57.6288L59.8518 227.396L52.9558 227.396L52.9569 245.417Z" fill="#FFB8B8"/>
<path d="M51.765 243.892L60.9662 243.892H60.9665C61.7366 243.892 62.4991 244.043 63.2105 244.338C63.9219 244.633 64.5683 245.065 65.1128 245.609C65.6573 246.154 66.0893 246.8 66.3839 247.511C66.6786 248.223 66.8303 248.985 66.8303 249.755V249.946L51.7653 249.946L51.765 243.892Z" fill="#2F2E41"/>
<path d="M81.9896 165.433L83.514 183.726L100.518 234.738C100.585 234.938 100.609 235.151 100.59 235.361C100.57 235.572 100.507 235.776 100.404 235.961C100.301 236.146 100.161 236.307 99.9926 236.435C99.824 236.562 99.6307 236.654 99.425 236.703L94.2134 237.944C93.8797 238.023 93.529 237.988 93.2179 237.843C92.9068 237.698 92.6536 237.453 92.4992 237.147L70.7597 194.025C70.6889 193.884 70.5762 193.769 70.4373 193.695C70.2984 193.621 70.1399 193.592 69.9838 193.611C69.8276 193.631 69.6814 193.699 69.5651 193.805C69.4489 193.911 69.3684 194.051 69.3346 194.204L59.7676 237.787C59.6931 238.127 59.5049 238.43 59.2341 238.648C58.9633 238.866 58.6262 238.985 58.2787 238.985H53.4304C53.2284 238.985 53.0285 238.945 52.8422 238.867C52.6558 238.789 52.4869 238.675 52.3451 238.531C52.2033 238.388 52.0916 238.217 52.0164 238.03C51.9413 237.842 51.9042 237.642 51.9073 237.44C52.3515 207.22 50.8859 172.785 62.5535 167.338L64.459 162.384L81.9896 165.433Z" fill="#2F2E41"/>
<path d="M63.9102 163.681L61.9454 151.8C61.6202 149.851 61.7908 147.852 62.4414 145.987C63.092 144.122 64.2017 142.45 65.6682 141.127C67.1017 139.816 68.8422 138.887 70.7291 138.426C72.616 137.965 74.5887 137.986 76.4652 138.488C76.5766 138.518 76.6881 138.548 76.7997 138.58C79.1086 139.241 81.159 140.595 82.6739 142.458C84.1888 144.322 85.0951 146.606 85.2706 149.001C85.6455 154.161 85.31 161.647 81.5822 168.006L81.5098 168.13L63.9102 163.681Z" fill="#CCCCCC"/>
<path d="M83.6864 120.441C81.5474 121.916 79.0087 122.7 76.411 122.69C77.3376 123.332 78.3925 123.766 79.503 123.962C76.0492 124.703 72.4796 124.723 69.0176 124.021C68.248 123.898 67.5055 123.642 66.8226 123.267C66.4822 123.077 66.1857 122.817 65.9523 122.505C65.7188 122.193 65.5537 121.835 65.4677 121.455C65.2376 120.141 66.2617 118.947 67.3259 118.142C68.9553 116.929 70.834 116.093 72.8261 115.695C74.8181 115.297 76.8738 115.346 78.8443 115.84C80.131 116.173 81.42 116.735 82.2557 117.768C83.0914 118.801 83.339 120.395 82.5428 121.459L83.6864 120.441Z" fill="#2F2E41"/>
<path d="M73.2643 111.832C74.3494 107.451 70.4605 102.584 65.948 102.675C61.3697 102.767 58.0007 106.905 55.6847 110.855C53.3688 114.805 51.0671 119.284 46.8155 120.984C45.4085 121.547 43.8839 121.752 42.3783 121.581C40.8727 121.409 39.4331 120.867 38.1888 120.002C36.9444 119.137 35.934 117.977 35.2483 116.626C34.5626 115.275 34.2229 113.774 34.2598 112.259C33.6889 117.059 34.4798 122.251 37.5749 125.963C40.67 129.676 46.4291 131.349 50.5686 128.854C52.9327 127.429 54.4438 124.952 55.6897 122.489C56.9355 120.026 58.0441 117.429 59.9317 115.415C61.8194 113.401 64.7383 112.064 67.3653 112.911C68.4081 113.248 69.3436 113.903 70.421 114.103C71.4984 114.302 72.8548 113.79 73.002 112.705L73.2643 111.832Z" fill="#2F2E41"/>
<path d="M50.7046 191.269C50.3161 190.814 50.0321 190.279 49.8727 189.702C49.7133 189.125 49.6824 188.52 49.782 187.93C49.8817 187.34 50.1095 186.779 50.4495 186.286C50.7895 185.794 51.2333 185.382 51.7497 185.079L59.8691 148.686L68.1056 152.066L57.5346 186.777C57.9852 187.678 58.0896 188.713 57.8279 189.687C57.5663 190.66 56.9568 191.503 56.1149 192.057C55.273 192.61 54.2573 192.836 53.2601 192.691C52.263 192.546 51.3537 192.04 50.7046 191.269H50.7046Z" fill="#FFB8B8"/>
<path d="M56.6522 153.906C56.5225 153.677 56.4439 153.422 56.4218 153.159C56.3996 152.896 56.4345 152.631 56.5239 152.383L59.6462 143.715C59.9119 142.392 60.6916 141.228 61.8142 140.479C62.9368 139.729 64.3107 139.456 65.6348 139.718C66.9588 139.98 68.1248 140.757 68.8771 141.877C69.6295 142.998 69.9067 144.371 69.6482 145.696L69.1738 154.927C69.1603 155.19 69.0901 155.447 68.9681 155.681C68.8461 155.915 68.6751 156.12 68.4668 156.282C68.2585 156.444 68.0177 156.559 67.7609 156.619C67.5042 156.68 67.2374 156.684 66.9788 156.632L57.8893 154.804C57.6306 154.753 57.3862 154.645 57.1727 154.49C56.9592 154.336 56.7816 154.136 56.6522 153.906Z" fill="#CCCCCC"/>
<path d="M123.176 149.825L123.041 149.806L123.55 146.101C123.629 145.532 123.478 144.956 123.131 144.498C122.784 144.041 122.269 143.74 121.701 143.662L113.85 142.582C113.281 142.504 112.705 142.655 112.247 143.002C111.79 143.349 111.489 143.863 111.411 144.432L108.616 164.76C108.538 165.329 108.689 165.905 109.036 166.363C109.383 166.82 109.897 167.121 110.466 167.199L118.317 168.278C118.885 168.357 119.462 168.206 119.919 167.859C120.377 167.512 120.678 166.997 120.756 166.429L122.678 152.444L122.814 152.462L123.176 149.825Z" fill="#3F3D56"/>
<path d="M121.454 144.749L120.477 144.614C120.506 144.731 120.507 144.853 120.479 144.969C120.45 145.086 120.394 145.194 120.314 145.284C120.234 145.373 120.133 145.442 120.02 145.483C119.907 145.525 119.786 145.538 119.667 145.522L115.377 144.932C115.258 144.916 115.145 144.87 115.048 144.8C114.95 144.729 114.872 144.636 114.819 144.528C114.766 144.42 114.741 144.301 114.745 144.181C114.749 144.061 114.783 143.944 114.843 143.84L113.93 143.714C113.729 143.687 113.525 143.699 113.329 143.75C113.133 143.802 112.949 143.891 112.788 144.013C112.627 144.136 112.491 144.289 112.389 144.463C112.287 144.638 112.22 144.831 112.192 145.032L109.531 164.393C109.503 164.594 109.515 164.798 109.567 164.994C109.618 165.19 109.707 165.374 109.83 165.535C109.952 165.696 110.105 165.832 110.28 165.934C110.454 166.037 110.648 166.103 110.848 166.131L118.372 167.165C118.778 167.221 119.188 167.114 119.514 166.866C119.84 166.619 120.054 166.253 120.11 165.848L122.772 146.486C122.827 146.081 122.72 145.67 122.473 145.345C122.225 145.019 121.859 144.804 121.454 144.749L121.454 144.749Z" fill="white"/>
<path d="M116.118 160.823C118.433 160.823 120.31 158.946 120.31 156.631C120.31 154.316 118.433 152.439 116.118 152.439C113.803 152.439 111.926 154.316 111.926 156.631C111.926 158.946 113.803 160.823 116.118 160.823Z" fill="#63F3FF"/>
<path d="M115.702 158.23C115.608 158.231 115.516 158.2 115.441 158.144L115.436 158.14L114.451 157.386C114.405 157.351 114.366 157.307 114.337 157.258C114.309 157.208 114.29 157.153 114.282 157.096C114.274 157.039 114.278 156.981 114.293 156.925C114.308 156.869 114.333 156.817 114.368 156.771C114.403 156.726 114.447 156.687 114.497 156.659C114.547 156.63 114.602 156.611 114.659 156.604C114.716 156.596 114.774 156.6 114.83 156.615C114.885 156.63 114.938 156.656 114.983 156.691L115.621 157.18L117.129 155.214C117.164 155.168 117.208 155.13 117.258 155.101C117.307 155.072 117.362 155.054 117.419 155.046C117.476 155.039 117.534 155.042 117.59 155.057C117.645 155.072 117.697 155.098 117.743 155.133L117.734 155.145L117.743 155.133C117.835 155.204 117.895 155.308 117.911 155.423C117.926 155.538 117.895 155.654 117.824 155.747L116.05 158.06C116.009 158.113 115.957 158.156 115.896 158.186C115.836 158.215 115.769 158.231 115.702 158.23Z" fill="white"/>
<path d="M154.754 250H9.55593C9.45486 250 9.35793 249.96 9.28646 249.888C9.21499 249.817 9.17484 249.72 9.17484 249.619C9.17484 249.518 9.21499 249.421 9.28646 249.349C9.35793 249.278 9.45486 249.238 9.55593 249.238H154.754C154.855 249.238 154.952 249.278 155.023 249.349C155.095 249.421 155.135 249.518 155.135 249.619C155.135 249.72 155.095 249.817 155.023 249.888C154.952 249.96 154.855 250 154.754 250Z" fill="#3F3D56"/>
</g>
<defs>
<clipPath id="clip0_9_57">
<rect width="323.054" height="250" fill="white"/>
</clipPath>
</defs>
</svg>
